<?xml version="1.0" standalone="no"?>
<!DOCTYPE svg PUBLIC "-//W3C//DTD SVG 20010904//EN"
 "http://www.w3.org/TR/2001/REC-SVG-20010904/DTD/svg10.dtd">
<svg version="1.0" xmlns="http://www.w3.org/2000/svg"
 width="512.000000pt" height="512.000000pt" viewBox="0 0 512.000000 512.000000"
 preserveAspectRatio="xMidYMid meet">

<g transform="translate(0.000000,512.000000) scale(0.100000,-0.100000)"
fill="#000000" stroke="none">
<path d="M280 5104 c-112 -30 -209 -116 -252 -222 l-23 -57 0 -2265 0 -2265
24 -60 c33 -82 124 -173 206 -206 l60 -24 2265 0 2265 0 60 24 c82 33 173 124
206 206 l24 60 0 2265 0 2265 -24 60 c-33 82 -124 173 -206 206 l-60 24 -2245
2 c-1954 2 -2252 0 -2300 -13z m960 -676 c106 -32 223 -127 271 -219 112 -220
22 -498 -194 -599 -252 -118 -552 19 -621 285 -85 326 224 629 544 533z m2449
-1204 c293 -74 523 -289 620 -579 66 -198 66 -194 66 -1090 l0 -810 -375 0
-375 0 -5 730 c-5 675 -7 734 -24 785 -71 212 -197 319 -386 328 -206 10 -393
-96 -475 -270 -64 -135 -65 -139 -65 -895 l0 -683 -375 0 -375 0 0 1230 0
1230 355 0 355 0 0 -172 0 -171 39 54 c84 118 262 234 446 292 69 22 134 34
260 51 63 8 224 -7 314 -30z m-2191 -1251 l-3 -1228 -375 0 -375 0 -3 1228 -2
1227 380 0 380 0 -2 -1227z"/>
</g>
</svg>
