<?xml version="1.0" standalone="no"?>
<!DOCTYPE svg PUBLIC "-//W3C//DTD SVG 20010904//EN"
 "http://www.w3.org/TR/2001/REC-SVG-20010904/DTD/svg10.dtd">
<svg version="1.0" xmlns="http://www.w3.org/2000/svg"
 width="512.000000pt" height="512.000000pt" viewBox="0 0 512.000000 512.000000"
 preserveAspectRatio="xMidYMid meet">

<g transform="translate(0.000000,512.000000) scale(0.100000,-0.100000)"
fill="#000000" stroke="none">
<path d="M0 2560 l0 -2560 2560 0 2560 0 0 2560 0 2560 -2560 0 -2560 0 0
-2560z m2018 934 c367 -75 659 -369 737 -739 20 -94 23 -272 6 -362 -85 -455
-474 -783 -930 -783 -640 0 -1096 623 -904 1235 103 326 377 577 708 648 95
21 286 21 383 1z m1437 -65 c62 -29 152 -119 197 -196 70 -119 125 -294 149
-470 17 -128 6 -413 -20 -528 -66 -284 -181 -475 -327 -542 -256 -117 -508
169 -573 650 -25 185 -8 462 40 637 29 106 118 285 174 348 108 122 238 158
360 101z m640 -75 c43 -17 93 -181 121 -399 24 -181 24 -610 0 -790 -31 -238
-81 -388 -133 -402 -60 -14 -105 83 -142 308 -75 447 -25 1143 91 1266 22 24
35 27 63 17z"/>
</g>
</svg>
